PathFileType	4	(X/Y/Z)	3_coords_data.trc
DataRate	CameraRate	NumFrames	NumMarkers	Units	OrigDataRate	OrigDataStartFrame	OrigNumFrames
30.0	30.0	5	21	m	30.0	29	48
Frame#	Time	THUMB_TIP	THUMB_IP	THUMB_MCP	THUMB_CMC	INDEX_TIP	INDEX_DIP	INDEX_PIP	INDEX_MCP	MIDDLE_TIP	MIDDLE_DIP	MIDDLE_PIP	MIDDLE_MCP	RING_TIP	RING_DIP	RING_PIP	RING_MCP	PINKY_TIP	PINKY_DIP	PINKY_PIP	PINKY_MCP	WRIST
X1	Y1	Z1	X2	Y2	Z2	X3	Y3	Z3	X4	Y4	Z4	X5	Y5	Z5	X6	Y6	Z6	X7	Y7	Z7	X8	Y8	Z8	X9	Y9	Z9	X10	Y10	Z10	X11	Y11	Z11	X12	Y12	Z12	X13	Y13	Z13	X14	Y14	Z14	X15	Y15	Z15	X16	Y16	Z16	X17	Y17	Z17	X18	Y18	Z18	X19	Y19	Z19	X20	Y20	Z20	X21	Y21	Z21
27	0.9333333333333294	0.5094850574784545	-0.004615202549124731	-0.16335077899596856	0.49899973974627043	-0.010376252536902664	-0.1437327155060757	0.4801121568223454	-0.020236162309303807	-0.12104215820635378	0.4719746728103713	-0.02946451297005226	-0.07816432129686024	0.5738372256450123	0.027396463653453162	-0.1661059858793758	0.5587203259514402	0.024033805961784505	-0.15671599775887518	0.5382586590435273	0.01852720155728249	-0.14318797764202346	0.506266941130404	0.0044490408745215815	-0.11885751380021559	0.592669794166288	0.03430663882982843	-0.1486173968293963	0.5774122802341382	0.031163579888842108	-0.13938000276484863	0.5530622928915796	0.025256642655909767	-0.12449390996171739	0.5176943494571031	0.010579094483340712	-0.1014759587527676	0.5990445978679144	0.025261647142436505	-0.11750312679702735	0.5832109784790318	0.027583415178195958	-0.10920216960908036	0.5606914708174903	0.02822534111942232	-0.09858898513090641	0.5261214684676706	0.013561207661241359	-0.08360235904448765	0.5980225176279695	0.015005185564756829	-0.0871157005319223	0.5824441573722215	0.016757429130719648	-0.08024224912613853	0.5626264717818616	0.01627412446120502	-0.07332576349844666	0.5298423751371031	0.004140604199940445	-0.06444521485229782	0.462283081001861	-0.023011742144276925	-0.051989820119430985
28	0.9666666666666625	0.5091893992901989	-0.004692994951265628	-0.1635004023745279	0.4988114864853973	-0.010422159301078926	-0.14381600241748665	0.4800055892820895	-0.02026320090657363	-0.12104953298330479	0.4719780396099673	-0.029503243912550436	-0.07815349526990623	0.5739338408098326	0.027102678771838695	-0.1660624310888903	0.5587625872078722	0.023886741746413476	-0.15670877869030803	0.5382529728976295	0.018485673499198274	-0.1432108523446053	0.5062860824831289	0.004324480588632773	-0.11889594690417504	0.5926751179524674	0.03419520913663998	-0.1486427287009855	0.5773885370173032	0.031135579652774137	-0.13942540204223391	0.5530192440890056	0.025264384563043474	-0.1245567712917866	0.51769263304263	0.01051639315958175	-0.10152038219667214	0.598939874450531	0.025581103462687715	-0.11764518912975819	0.5830962764833058	0.027822789071615728	-0.10934125939235895	0.5605842741686964	0.02835064506151086	-0.09870588921351942	0.526098334218815	0.01356205490577378	-0.08364805467535219	0.5979239582961197	0.015520630871910912	-0.08715668541830857	0.5823301213698341	0.017159814591149458	-0.0802904399631128	0.5625224957331674	0.016523476438211948	-0.07335754306551101	0.5297961745213099	0.004250639774056153	-0.06445536180734246	0.4622830810018608	-0.023011742144276925	-0.051989820119430985
29	0.9999999999999956	0.5092583620595721	-0.005446202805209244	-0.1636155767878273	0.4988636149068164	-0.010993101688352325	-0.14388790220589892	0.4800390595532211	-0.020640623836278404	-0.12105412389076442	0.4720610594396004	-0.029619499463368726	-0.07809342898646487	0.5745850896438772	0.025452419981510932	-0.16578075726642988	0.5592369942865182	0.022720840001407283	-0.15656259911451526	0.5385191449023458	0.01780480015306396	-0.1431979778290376	0.506295545496681	0.0039759911337821086	-0.11903106291522436	0.5932063528687561	0.03260566270722276	-0.14850548167917454	0.5777885413848084	0.029970860922370446	-0.13937591933479088	0.5532268476778469	0.024634175597659236	-0.12462286737967265	0.5176524534249135	0.010384186169860254	-0.10165445002356188	0.598987317257178	0.024853863744756288	-0.1177713017758385	0.5831403095232326	0.027288310285603412	-0.10952837657175996	0.5606102287600713	0.028035087893571453	-0.09894453213745025	0.5260500346395777	0.013532936909974702	-0.08377873399812474	0.5978407332004911	0.0154096658459687	-0.08733918883118685	0.5822563245368969	0.017134113151912378	-0.08047242189942694	0.5624538811341192	0.0165807901199716	-0.0735176330527324	0.5297245091427482	0.004417316136812288	-0.06447763522577088	0.4622830810018608	-0.023011742144276925	-0.051989820119430985
30	1.0333333333333288	0.509939956266354	-0.00703321400256518	-0.16359019255341112	0.49932461350075086	-0.012220405836233184	-0.1438821348396362	0.4803202212144627	-0.0214741852512077	-0.12103436382432997	0.4722570424331899	-0.029831800604361525	-0.07796435786252454	0.5757359032776566	0.022363825805266857	-0.165189597406097	0.5601137525432681	0.020457922414034102	-0.1562276813891208	0.5390189617741195	0.01647257392843582	-0.14314576131391088	0.5062516543742482	0.0034147355423734815	-0.11928297613602723	0.5941855510019737	0.02940807745731555	-0.14819004992270696	0.5785451343896848	0.027572742578352183	-0.13924527971458533	0.5536320908682753	0.023318645658772397	-0.1247314080085527	0.5175257524076327	0.010186748823926672	-0.10192716433583926	0.5991775961356387	0.022898954751793932	-0.11782909477575465	0.5833382861593202	0.025861892803374587	-0.10974594826114825	0.5607604862157778	0.027223953072247786	-0.09932636475059775	0.5259281825295886	0.013501165387288627	-0.0840582099155619	0.5977597989136045	0.01455482502544303	-0.08765823601401124	0.5822104786225878	0.01664641282580437	-0.0808139757208346	0.562403814538778	0.016454575754810574	-0.07385184419311186	0.5295733852420215	0.004730736983211692	-0.06459992722157415	0.462283081001861	-0.023011742144276925	-0.051989820119430985
31	1.0666666666666622	0.5114142248299084	-0.00940958950280657	-0.16328422104422213	0.5003276642808754	-0.014103419157929342	-0.14371240103786298	0.48095481656169203	-0.02278718624700804	-0.12095048195374425	0.472607942164163	-0.030122302056221906	-0.07774844769773614	0.5772795665100325	0.01771313689400189	-0.16413388813000868	0.5613128562751367	0.01701808341029476	-0.155614435980389	0.5397029954366203	0.014446734970342767	-0.1430282564671167	0.5060927510174262	0.002693052405319696	-0.11966506939337374	0.5954636227093786	0.024501107926246157	-0.14753466279591948	0.5795472358257469	0.023885706775169324	-0.13891550332449737	0.5541510075349156	0.02132662457318757	-0.12484808576179274	0.517237868571393	0.009979560485401273	-0.10238005893593782	0.5993860396884738	0.019575296598639325	-0.11776585618354829	0.5836014808316337	0.02343324867663088	-0.109957917437703	0.5609705675043655	0.025921233336174798	-0.0998667493533062	0.5256734984485116	0.013526769060179467	-0.08453002853765057	0.5975987537366063	0.012746600572317024	-0.08815940196096972	0.5821462679876952	0.015593369225664455	-0.08136848211060976	0.5623386054984412	0.01613282041206643	-0.07442747943597494	0.5293095792249657	0.005239643571723351	-0.06487208448071047	0.4622830810018608	-0.023011742144276925	-0.051989820119430985
